# 阶段 3 CAD 基线：中心位于原点、单位为米的封闭圆柱杯模型。
# 半径 0.038 m，高度 0.140 m；轴向 +Z。颜色由仿真材质/分割器处理，不写入 CAD。
v 0.038000 0.000000 -0.070000
v 0.035107 0.014541 -0.070000
v 0.026870 0.026870 -0.070000
v 0.014541 0.035107 -0.070000
v 0.000000 0.038000 -0.070000
v -0.014541 0.035107 -0.070000
v -0.026870 0.026870 -0.070000
v -0.035107 0.014541 -0.070000
v -0.038000 0.000000 -0.070000
v -0.035107 -0.014541 -0.070000
v -0.026870 -0.026870 -0.070000
v -0.014541 -0.035107 -0.070000
v 0.000000 -0.038000 -0.070000
v 0.014541 -0.035107 -0.070000
v 0.026870 -0.026870 -0.070000
v 0.035107 -0.014541 -0.070000
v 0.038000 0.000000 0.070000
v 0.035107 0.014541 0.070000
v 0.026870 0.026870 0.070000
v 0.014541 0.035107 0.070000
v 0.000000 0.038000 0.070000
v -0.014541 0.035107 0.070000
v -0.026870 0.026870 0.070000
v -0.035107 0.014541 0.070000
v -0.038000 0.000000 0.070000
v -0.035107 -0.014541 0.070000
v -0.026870 -0.026870 0.070000
v -0.014541 -0.035107 0.070000
v 0.000000 -0.038000 0.070000
v 0.014541 -0.035107 0.070000
v 0.026870 -0.026870 0.070000
v 0.035107 -0.014541 0.070000
f 1 2 18 17
f 2 3 19 18
f 3 4 20 19
f 4 5 21 20
f 5 6 22 21
f 6 7 23 22
f 7 8 24 23
f 8 9 25 24
f 9 10 26 25
f 10 11 27 26
f 11 12 28 27
f 12 13 29 28
f 13 14 30 29
f 14 15 31 30
f 15 16 32 31
f 16 1 17 32
f 1 16 15 14 13 12 11 10 9 8 7 6 5 4 3 2
f 17 18 19 20 21 22 23 24 25 26 27 28 29 30 31 32
